<svg width="136" height="128" viewBox="0 0 136 128" fill="none" xmlns="http://www.w3.org/2000/svg">
<g opacity="0.7">
<path d="M115.66 1.10983H91.7393V29.4648H115.66V1.10983Z" fill="#F4F4F4"/>
<path d="M115.66 29.4648H116.436V1.10982H115.66V29.4648Z" fill="#F4F4F4"/>
<path opacity="0.05" d="M115.66 29.4648H116.436V1.10982H115.66V29.4648Z" fill="#292A2E"/>
<path opacity="0.05" d="M111.303 6.78157H96.0972V23.7932H111.303V6.78157Z" fill="#292A2E"/>
<path opacity="0.03" d="M111.302 6.78157H110.51V23.7932H111.302V6.78157Z" fill="#292A2E"/>
<path d="M135.223 37.1215H115.66V56.8642H135.223V37.1215Z" fill="#F4F4F4"/>
<path opacity="0.05" d="M131.659 40.7178H119.223V53.2678H131.659V40.7178Z" fill="#292A2E"/>
<path d="M135.223 56.8642H135.999V37.1215H135.223V56.8642Z" fill="#F4F4F4"/>
<path opacity="0.05" d="M135.223 56.8642H135.999V37.1215H135.223V56.8642Z" fill="#292A2E"/>
<path opacity="0.03" d="M131.659 40.7178H130.867V53.2678H131.659V40.7178Z" fill="#292A2E"/>
</g>
<g opacity="0.7">
<path d="M66.6824 4.57764e-05H10.3667V56.3158H66.6824V4.57764e-05Z" fill="#F4F4F4"/>
<path d="M10.3677 4.57764e-05H9.72217V56.3158H10.3677V4.57764e-05Z" fill="#F4F4F4"/>
<path opacity="0.05" d="M10.3677 4.57764e-05H9.72217V56.3158H10.3677V4.57764e-05Z" fill="#292A2E"/>
<path opacity="0.05" d="M24.0109 38.8062V24.0722H36.0802V32.6323H54.7757V47.7892H62.7216V56.3158H54.7757H53.245H13.0771V38.8062H24.0109Z" fill="#292A2E"/>
<path opacity="0.34" d="M34.5308 25.672H25.7417V27.2717H34.5308V25.672Z" fill="#FFFFFA"/>
<path opacity="0.34" d="M34.5308 28.987H25.7417V30.5868H34.5308V28.987Z" fill="#FFFFFA"/>
<path opacity="0.34" d="M34.5308 32.3021H25.7417V33.9018H34.5308V32.3021Z" fill="#FFFFFA"/>
<path opacity="0.34" d="M16.2556 40.3591H14.6357V41.9588H16.2556V40.3591Z" fill="#FFFFFA"/>
<path opacity="0.34" d="M16.2556 43.6742H14.6357V45.274H16.2556V43.6742Z" fill="#FFFFFA"/>
<path opacity="0.34" d="M16.2556 46.9892H14.6357V48.589H16.2556V46.9892Z" fill="#FFFFFA"/>
<path opacity="0.34" d="M19.2527 40.3591H17.6328V41.9588H19.2527V40.3591Z" fill="#FFFFFA"/>
<path opacity="0.34" d="M19.2527 43.6742H17.6328V45.274H19.2527V43.6742Z" fill="#FFFFFA"/>
<path opacity="0.34" d="M19.2527 46.9892H17.6328V48.589H19.2527V46.9892Z" fill="#FFFFFA"/>
<path opacity="0.34" d="M22.1678 40.3591H20.5479V41.9588H22.1678V40.3591Z" fill="#FFFFFA"/>
<path opacity="0.34" d="M22.1678 43.6742H20.5479V45.274H22.1678V43.6742Z" fill="#FFFFFA"/>
<path opacity="0.34" d="M22.1678 46.9892H20.5479V48.589H22.1678V46.9892Z" fill="#FFFFFA"/>
<path d="M10.3667 27.842H21.6984V4.57764e-05H22.6355V27.842H53.2436V4.57764e-05H54.1808V27.842H66.6824V28.7791H54.1808V56.3158H53.2436V28.7791H22.6355V56.3158H21.6984V28.7791H10.3667V27.842Z" fill="white"/>
<path d="M68.9271 56.2478H8.12451V58.1206H68.9271V56.2478Z" fill="#F4F4F4"/>
<path opacity="0.1" d="M68.9271 56.2478H8.12451V58.1206H68.9271V56.2478Z" fill="#292A2E"/>
<path opacity="0.1" d="M8.12389 56.2478H7.24609V58.1206H8.12389V56.2478Z" fill="#292A2E"/>
<path opacity="0.1" d="M8.12389 56.2478H7.24609V58.1206H8.12389V56.2478Z" fill="#292A2E"/>
</g>
<path d="M42.87 6.9929H108.786C109.736 6.9929 110.646 7.3701 111.318 8.0415C111.989 8.71291 112.366 9.62353 112.366 10.573V89.5217C112.366 90.4918 111.981 91.4222 111.295 92.1082C110.609 92.7943 109.678 93.1796 108.708 93.1796H42.948C41.9779 93.1796 41.0474 92.7943 40.3614 92.1082C39.6754 91.4222 39.29 90.4918 39.29 89.5217V10.5726C39.2901 9.62321 39.6674 8.71271 40.3387 8.0414C41.0101 7.37009 41.9206 6.99294 42.87 6.9929Z" fill="white"/>
<path d="M108.709 93.3185H42.9484C41.9413 93.3185 40.9756 92.9185 40.2635 92.2064C39.5514 91.4943 39.1514 90.5285 39.1514 89.5215V10.4336C39.1514 9.48417 39.5286 8.57366 40.2 7.90234C40.8714 7.23102 41.7819 6.85388 42.7314 6.85388H108.926C109.875 6.85388 110.786 7.23105 111.457 7.90243C112.128 8.5738 112.506 9.48439 112.506 10.4339V89.5215C112.506 90.5285 112.106 91.4943 111.394 92.2064C110.681 92.9185 109.716 93.3185 108.709 93.3185ZM39.4294 10.5666V89.5215C39.4294 89.9836 39.5204 90.4412 39.6972 90.8682C39.8741 91.2951 40.1333 91.6831 40.4601 92.0098C40.7868 92.3366 41.1748 92.5958 41.6017 92.7726C42.0287 92.9495 42.4862 93.0405 42.9484 93.0405H108.709C109.642 93.0405 110.537 92.6697 111.197 92.0098C111.857 91.3499 112.228 90.4548 112.228 89.5215V10.5319C112.228 10.0853 112.14 9.64318 111.969 9.23065C111.798 8.81812 111.547 8.4433 111.231 8.12758C110.916 7.81187 110.541 7.56144 110.128 7.39061C109.716 7.21977 109.273 7.13187 108.827 7.13193H42.8644C41.9534 7.13193 41.0798 7.49379 40.4356 8.13792C39.7914 8.78204 39.4295 9.65567 39.4294 10.5666Z" fill="#292A2E"/>
<path d="M53.4667 24.1313H45.4786C45.0334 24.1308 44.6066 23.9537 44.2918 23.639C43.977 23.3242 43.7999 22.8975 43.7993 22.4523V14.464C43.7998 14.0188 43.9769 13.592 44.2917 13.2772C44.6065 12.9623 45.0334 12.7853 45.4786 12.7847H53.4667C53.912 12.7852 54.3388 12.9623 54.6537 13.2771C54.9685 13.5919 55.1456 14.0188 55.1461 14.464V22.4523C55.1455 22.8975 54.9684 23.3243 54.6536 23.639C54.3387 23.9538 53.9119 24.1308 53.4667 24.1313ZM45.4786 13.0625C45.1071 13.063 44.7509 13.2107 44.4883 13.4734C44.2256 13.7361 44.0778 14.0922 44.0774 14.4637V22.4523C44.0778 22.8238 44.2256 23.1799 44.4883 23.4426C44.7509 23.7053 45.1071 23.8531 45.4786 23.8535H53.4667C53.8382 23.8531 54.1944 23.7054 54.4571 23.4427C54.7199 23.18 54.8676 22.8238 54.8681 22.4523V14.464C54.8676 14.0925 54.7199 13.7363 54.4571 13.4736C54.1944 13.2109 53.8382 13.0632 53.4667 13.0628L45.4786 13.0625Z" fill="#292A2E"/>
<path d="M53.4667 39.9574H45.4786C45.0334 39.9569 44.6065 39.7798 44.2917 39.465C43.9769 39.1502 43.7998 38.7234 43.7993 38.2781V30.29C43.7998 29.8448 43.9769 29.4179 44.2917 29.1031C44.6065 28.7882 45.0333 28.6111 45.4786 28.6106H53.4667C53.912 28.6111 54.3388 28.7882 54.6537 29.1031C54.9685 29.4179 55.1456 29.8448 55.1461 30.29V38.2781C55.1456 38.7234 54.9685 39.1502 54.6537 39.465C54.3388 39.7799 53.912 39.9569 53.4667 39.9574ZM45.4786 28.8891C45.1071 28.8895 44.7509 29.0373 44.4882 29.3C44.2255 29.5627 44.0778 29.9189 44.0774 30.2904V38.2786C44.0778 38.6501 44.2255 39.0062 44.4882 39.2689C44.7509 39.5316 45.1071 39.6794 45.4786 39.6798H53.4667C53.8382 39.6794 54.1944 39.5316 54.4571 39.2689C54.7199 39.0062 54.8676 38.6501 54.8681 38.2786V30.29C54.8676 29.9185 54.7199 29.5623 54.4571 29.2996C54.1944 29.0369 53.8383 28.8891 53.4667 28.8886L45.4786 28.8891Z" fill="#292A2E"/>
<path d="M53.4667 55.7836H45.4786C45.0334 55.783 44.6065 55.606 44.2917 55.2912C43.9769 54.9763 43.7998 54.5495 43.7993 54.1043V46.1162C43.7998 45.6709 43.9769 45.2441 44.2917 44.9293C44.6065 44.6145 45.0334 44.4374 45.4786 44.4369H53.4667C53.912 44.4374 54.3388 44.6144 54.6537 44.9293C54.9685 45.2441 55.1456 45.6709 55.1461 46.1162V54.1043C55.1456 54.5495 54.9685 54.9764 54.6537 55.2912C54.3388 55.606 53.912 55.7831 53.4667 55.7836ZM45.4786 44.7149C45.1071 44.7153 44.7509 44.8631 44.4882 45.1258C44.2255 45.3885 44.0778 45.7447 44.0774 46.1162V54.1043C44.0778 54.4758 44.2255 54.832 44.4882 55.0947C44.7509 55.3574 45.1071 55.5051 45.4786 55.5055H53.4667C53.8382 55.5051 54.1944 55.3574 54.4571 55.0947C54.7199 54.832 54.8676 54.4758 54.8681 54.1043V46.1162C54.8676 45.7446 54.7199 45.3885 54.4571 45.1258C54.1944 44.8631 53.8382 44.7153 53.4667 44.7149H45.4786Z" fill="#292A2E"/>
<path d="M53.4667 71.3923H45.4786C45.0334 71.3918 44.6065 71.2147 44.2917 70.8999C43.9769 70.5851 43.7998 70.1582 43.7993 69.713V61.7249C43.7998 61.2796 43.9769 60.8528 44.2917 60.5379C44.6065 60.2231 45.0333 60.046 45.4786 60.0455H53.4667C53.912 60.046 54.3388 60.2231 54.6537 60.5379C54.9685 60.8528 55.1456 61.2796 55.1461 61.7249V69.713C55.1456 70.1583 54.9685 70.5851 54.6537 70.8999C54.3388 71.2147 53.912 71.3918 53.4667 71.3923ZM45.4786 60.3235C45.1071 60.3239 44.7509 60.4717 44.4882 60.7344C44.2255 60.9971 44.0777 61.3534 44.0774 61.7249V69.713C44.0778 70.0845 44.2256 70.4407 44.4883 70.7033C44.7509 70.966 45.1071 71.1138 45.4786 71.1142H53.4667C53.8382 71.1138 54.1944 70.9661 54.4571 70.7034C54.7199 70.4407 54.8676 70.0845 54.8681 69.713V61.7249C54.8677 61.3533 54.7199 60.9971 54.4572 60.7344C54.1945 60.4717 53.8383 60.3239 53.4667 60.3235H45.4786Z" fill="#292A2E"/>
<path d="M53.4667 87.0009H45.4786C45.0333 87.0003 44.6065 86.8232 44.2917 86.5084C43.9769 86.1936 43.7998 85.7667 43.7993 85.3215V77.3335C43.7998 76.8882 43.9769 76.4614 44.2917 76.1465C44.6065 75.8317 45.0333 75.6546 45.4786 75.6541H53.4667C53.912 75.6546 54.3388 75.8317 54.6537 76.1465C54.9685 76.4613 55.1456 76.8882 55.1461 77.3335V85.3216C55.1456 85.7668 54.9685 86.1937 54.6536 86.5085C54.3388 86.8233 53.912 87.0003 53.4667 87.0009ZM45.4786 75.932C45.1071 75.9324 44.7509 76.0802 44.4882 76.3429C44.2255 76.6056 44.0778 76.9618 44.0774 77.3333V85.3215C44.0778 85.693 44.2255 86.0492 44.4882 86.3119C44.7509 86.5746 45.1071 86.7224 45.4786 86.7228H53.4667C53.8383 86.7224 54.1944 86.5746 54.4571 86.3119C54.7199 86.0492 54.8676 85.693 54.8681 85.3215V77.3335C54.8676 76.9619 54.7199 76.6057 54.4571 76.343C54.1944 76.0803 53.8383 75.9325 53.4667 75.9321L45.4786 75.932Z" fill="#292A2E"/>
<path d="M48.052 37.4799C47.9082 37.48 47.7701 37.4243 47.6666 37.3246L45.3382 35.0863C45.2856 35.0357 45.2434 34.9752 45.2141 34.9083C45.1848 34.8414 45.169 34.7694 45.1676 34.6964C45.1661 34.6234 45.1791 34.5508 45.2057 34.4828C45.2323 34.4148 45.2721 34.3526 45.3227 34.3C45.3733 34.2473 45.4337 34.2052 45.5007 34.1759C45.5676 34.1466 45.6396 34.1308 45.7126 34.1294C45.7856 34.1279 45.8582 34.1409 45.9262 34.1675C45.9942 34.1941 46.0563 34.2338 46.109 34.2844L48.0425 36.1433L52.889 31.2525C52.9932 31.1494 53.1338 31.0917 53.2803 31.0917C53.4268 31.0918 53.5674 31.1497 53.6714 31.2528C53.7755 31.3559 53.8347 31.4959 53.8361 31.6424C53.8376 31.7889 53.7811 31.93 53.6791 32.0352L48.4469 37.3146C48.3954 37.367 48.3339 37.4085 48.2661 37.4369C48.1982 37.4653 48.1255 37.4799 48.052 37.4799Z" fill="#0CBC8B"/>
<path d="M48.052 53.306C47.9083 53.3061 47.7701 53.2505 47.6666 53.1508L45.3382 50.9126C45.2319 50.8104 45.1705 50.6701 45.1676 50.5226C45.1647 50.3752 45.2205 50.2326 45.3227 50.1262C45.4249 50.0199 45.5651 49.9585 45.7126 49.9556C45.8601 49.9527 46.0026 50.0085 46.109 50.1107L48.0425 51.969L52.889 47.0786C52.9928 46.9738 53.134 46.9146 53.2815 46.9139C53.429 46.9132 53.5707 46.9711 53.6755 47.075C53.7802 47.1788 53.8395 47.3199 53.8402 47.4674C53.8408 47.6149 53.7829 47.7566 53.6791 47.8614L48.4469 53.1408C48.3953 53.1932 48.3338 53.2347 48.266 53.2631C48.1982 53.2914 48.1255 53.306 48.052 53.306Z" fill="#0CBC8B"/>
<path opacity="0.5" d="M106.361 15.9845H59.512C59.2977 15.9845 59.124 16.1582 59.124 16.3725C59.124 16.5868 59.2977 16.7605 59.512 16.7605H106.361C106.576 16.7605 106.749 16.5868 106.749 16.3725C106.749 16.1582 106.576 15.9845 106.361 15.9845Z" fill="#262626"/>
<path opacity="0.5" d="M89.6784 20.1552H59.512C59.2977 20.1552 59.124 20.3289 59.124 20.5432C59.124 20.7575 59.2977 20.9312 59.512 20.9312H89.6784C89.8927 20.9312 90.0665 20.7575 90.0665 20.5432C90.0665 20.3289 89.8927 20.1552 89.6784 20.1552Z" fill="#262626"/>
<path opacity="0.5" d="M106.361 31.8106H59.512C59.2977 31.8106 59.124 31.9843 59.124 32.1986C59.124 32.4129 59.2977 32.5867 59.512 32.5867H106.361C106.576 32.5867 106.749 32.4129 106.749 32.1986C106.749 31.9843 106.576 31.8106 106.361 31.8106Z" fill="#262626"/>
<path opacity="0.5" d="M89.6784 35.9814H59.512C59.2977 35.9814 59.124 36.1551 59.124 36.3694C59.124 36.5837 59.2977 36.7574 59.512 36.7574H89.6784C89.8927 36.7574 90.0665 36.5837 90.0665 36.3694C90.0665 36.1551 89.8927 35.9814 89.6784 35.9814Z" fill="#262626"/>
<path opacity="0.5" d="M106.361 47.6368H59.512C59.2977 47.6368 59.124 47.8105 59.124 48.0248C59.124 48.2391 59.2977 48.4128 59.512 48.4128H106.361C106.576 48.4128 106.749 48.2391 106.749 48.0248C106.749 47.8105 106.576 47.6368 106.361 47.6368Z" fill="#262626"/>
<path opacity="0.5" d="M89.6784 51.8075H59.512C59.2977 51.8075 59.124 51.9812 59.124 52.1955C59.124 52.4098 59.2977 52.5835 59.512 52.5835H89.6784C89.8927 52.5835 90.0665 52.4098 90.0665 52.1955C90.0665 51.9812 89.8927 51.8075 89.6784 51.8075Z" fill="#262626"/>
<path opacity="0.5" d="M106.361 63.2455H59.512C59.2977 63.2455 59.124 63.4192 59.124 63.6335C59.124 63.8478 59.2977 64.0215 59.512 64.0215H106.361C106.576 64.0215 106.749 63.8478 106.749 63.6335C106.749 63.4192 106.576 63.2455 106.361 63.2455Z" fill="#262626"/>
<path opacity="0.5" d="M89.6784 67.4162H59.512C59.2977 67.4162 59.124 67.5899 59.124 67.8042C59.124 68.0185 59.2977 68.1922 59.512 68.1922H89.6784C89.8927 68.1922 90.0665 68.0185 90.0665 67.8042C90.0665 67.5899 89.8927 67.4162 89.6784 67.4162Z" fill="#262626"/>
<path opacity="0.5" d="M106.361 78.8541H59.512C59.2977 78.8541 59.124 79.0278 59.124 79.2421C59.124 79.4564 59.2977 79.6301 59.512 79.6301H106.361C106.576 79.6301 106.749 79.4564 106.749 79.2421C106.749 79.0278 106.576 78.8541 106.361 78.8541Z" fill="#262626"/>
<path opacity="0.5" d="M89.6784 83.0248H59.512C59.2977 83.0248 59.124 83.1985 59.124 83.4128C59.124 83.6271 59.2977 83.8008 59.512 83.8008H89.6784C89.8927 83.8008 90.0665 83.6271 90.0665 83.4128C90.0665 83.1985 89.8927 83.0248 89.6784 83.0248Z" fill="#262626"/>
<path d="M47.6499 21.3021C47.6904 21.2025 47.7623 21.1188 47.8548 21.0639C47.9472 21.0089 48.0551 20.9857 48.1619 20.9977C48.1619 20.9891 48.1544 20.9683 48.1694 20.9684L47.8219 20.7487C47.7179 20.6862 47.6402 20.5882 47.6029 20.4728C47.5656 20.3574 47.5714 20.2324 47.6192 20.1209C47.6699 20.0123 47.7591 19.9264 47.8696 19.8799C47.98 19.8333 48.1038 19.8295 48.217 19.8691C48.2158 19.8644 48.2188 19.8597 48.2192 19.8552L48.0763 19.765C47.9786 19.7057 47.9044 19.6145 47.8662 19.5068C47.8281 19.399 47.8283 19.2814 47.8669 19.1739C47.8925 19.107 47.9327 19.0466 47.9845 18.9971C48.0363 18.9475 48.0984 18.9101 48.1664 18.8875C48.2344 18.8649 48.3065 18.8577 48.3777 18.8663C48.4488 18.875 48.5171 18.8993 48.5777 18.9375L48.9078 19.1461C48.9086 19.1441 48.9078 19.142 48.9086 19.1402C48.9094 19.1384 48.9132 19.1376 48.9149 19.1355C48.8374 19.058 48.7886 18.9564 48.7764 18.8475C48.7642 18.7385 48.7893 18.6287 48.8477 18.5359C48.9831 18.2866 49.331 18.3156 49.5444 18.4503L50.1839 18.927C50.2825 19.0005 50.3614 19.0973 50.4135 19.2088C50.4657 19.3202 50.4895 19.4428 50.4828 19.5657C50.4259 20.6289 50.2108 23.4027 49.5298 22.9717L47.8533 21.9132C47.7562 21.8485 47.6835 21.7532 47.6467 21.6425C47.6098 21.5319 47.611 21.412 47.6499 21.3021Z" fill="#E98862"/>
<path d="M48.0504 21.4953C47.9067 21.4954 47.7685 21.4397 47.665 21.34L45.3366 19.1017C45.2832 19.0513 45.2403 18.9908 45.2103 18.9237C45.1804 18.8566 45.1641 18.7842 45.1623 18.7108C45.1605 18.6373 45.1733 18.5642 45.1999 18.4958C45.2265 18.4273 45.2664 18.3647 45.3173 18.3118C45.3682 18.2588 45.4291 18.2165 45.4965 18.1872C45.5639 18.1579 45.6364 18.1422 45.7099 18.1411C45.7833 18.14 45.8563 18.1535 45.9245 18.1808C45.9928 18.208 46.0549 18.2485 46.1074 18.3L48.0409 20.1584L52.8874 15.268C52.9388 15.2161 52.9999 15.1749 53.0673 15.1466C53.1346 15.1184 53.2069 15.1036 53.2799 15.1033C53.3529 15.103 53.4253 15.117 53.4929 15.1447C53.5605 15.1723 53.622 15.213 53.6739 15.2644C53.7258 15.3158 53.767 15.3769 53.7953 15.4442C53.8235 15.5116 53.8382 15.5838 53.8386 15.6569C53.8389 15.7299 53.8248 15.8023 53.7972 15.8699C53.7696 15.9375 53.7289 15.999 53.6775 16.0508L48.4453 21.3303C48.3937 21.3826 48.3322 21.4241 48.2644 21.4524C48.1966 21.4808 48.1239 21.4953 48.0504 21.4953Z" fill="#0CBC8B"/>
<path d="M46.4481 20.1379C46.4597 20.0569 46.4878 19.9791 46.5305 19.9093C46.5732 19.8395 46.6297 19.7792 46.6965 19.732C46.7633 19.6847 46.839 19.6516 46.919 19.6346C46.9991 19.6176 47.0817 19.6171 47.1619 19.6331C47.3161 19.6695 47.4507 19.763 47.5386 19.8948C47.6265 20.0266 47.6611 20.1869 47.6355 20.3432L47.6188 21.1969C47.6152 21.3775 47.6779 21.5532 47.795 21.6907C47.9121 21.8282 48.0754 21.9182 48.2543 21.9435C48.4295 21.9684 48.6079 21.9295 48.757 21.834C48.906 21.7385 49.0159 21.5927 49.0666 21.4231L49.5021 19.9657L49.0285 19.2585C49.1942 18.9916 49.3332 18.3014 49.6203 18.507C49.8632 18.658 50.4147 19.023 50.5657 19.3689C50.5686 19.3703 50.8509 22.338 50.6973 22.5855L49.3379 26.2218C48.6858 27.2717 45.5386 26.4593 45.5386 26.4593L46.4481 20.1379Z" fill="#E98862"/>
<path d="M48.041 20.1584L52.8875 15.268C52.9389 15.2161 53 15.1749 53.0674 15.1466C53.1347 15.1184 53.207 15.1037 53.28 15.1033C53.353 15.103 53.4254 15.117 53.493 15.1447C53.5606 15.1723 53.6221 15.213 53.674 15.2644C53.7258 15.3158 53.7671 15.3769 53.7953 15.4443C53.8236 15.5116 53.8383 15.5838 53.8387 15.6569C53.839 15.7299 53.8249 15.8023 53.7973 15.8699C53.7697 15.9375 53.729 15.999 53.6776 16.0509L48.4454 21.3303" fill="#0CBC8B"/>
<path d="M23.3059 45.4341L42.9202 43.7835C44.3644 43.8214 45.6219 42.6207 46.1516 41.2733L51.2904 25.1663L44.5681 22.5237L40.0319 36.3208L22.7817 37.5281L23.3059 45.4341Z" fill="#367CFF"/>
<path d="M11.9187 121.27C11.9187 121.27 12.5464 124.523 15.5928 124.705C18.6392 124.887 17.9786 127.313 17.9786 127.313H6.33691V121.497L11.9187 121.27Z" fill="#367CFF"/>
<path d="M8.32754 61.9166C8.32754 61.9166 8.3641 60.9386 8.35632 63.1572C8.32754 71.4332 8.18393 80.8862 7.83303 86.4179C7.26901 95.3104 5.82275 123.346 5.82275 123.346L13.4727 123.282L20.8871 61.5804L8.32754 61.9166Z" fill="#262626"/>
<path d="M16.9663 71.6759C16.9663 71.6759 17.2833 77.6817 17.3417 79.0916C17.4776 82.3523 17.5249 85.7284 17.5249 89.5563L18.7311 79.5214C18.7311 79.5214 17.8487 76.3767 16.9663 71.6759Z" fill="#0A0A0A"/>
<path d="M25.5369 121.27C25.5369 121.27 26.1646 124.523 29.211 124.705C32.2574 124.887 31.5968 127.313 31.5968 127.313H19.9551V121.497L25.5369 121.27Z" fill="#367CFF"/>
<path d="M29.2406 62.5593C29.2406 62.5593 29.9182 90.8445 29.819 92.2269L26.9741 123.132L19.4506 123.271L20.1838 91.1087C20.1838 91.1087 19.6666 82.2368 17.523 73.9986C16.4263 69.7705 15.7662 65.441 15.5532 61.0782L29.2406 62.5593Z" fill="#262626"/>
<path d="M8.24377 61.9158L8.21875 61.9172C8.21875 61.9172 8.23696 61.4345 8.24377 61.9158Z" fill="#333333"/>
<path d="M30.3181 47.6934C30.1604 49.5469 29.3929 60.2763 29.2412 62.5593H8.33596C8.21793 60.5002 7.68756 51.4964 7.23976 47.4698C6.81227 43.6275 5.97354 41.7039 6.5883 40.5679C7.59288 38.7114 10.338 37.6387 12.2098 37.3852C13.3529 37.2305 23.0976 37.1193 23.121 37.1193C23.8864 37.1193 28.3435 37.4791 29.3288 38.2379C31.1115 39.6109 30.5936 44.4612 30.3181 47.6934Z" fill="#367CFF"/>
<path d="M30.6074 44.8744C30.6252 44.8744 30.6423 44.8677 30.6552 44.8555C30.6681 44.8433 30.6759 44.8267 30.6769 44.8089L30.8456 42.1437C30.8466 42.1253 30.8404 42.1072 30.8281 42.0935C30.8159 42.0797 30.7986 42.0714 30.7802 42.0703C30.7619 42.0695 30.744 42.0758 30.7302 42.088C30.7165 42.1002 30.7081 42.1173 30.7068 42.1357L30.5382 44.8009C30.5371 44.8193 30.5434 44.8373 30.5557 44.8511C30.5679 44.8649 30.5851 44.8732 30.6035 44.8743L30.6074 44.8744Z" fill="#0C0C0C"/>
<path d="M3.81544 62.438C3.20064 62.4378 2.59498 62.2891 2.05001 62.0045C1.50504 61.7199 1.03689 61.3079 0.685375 60.8035C0.333864 60.2991 0.109403 59.7172 0.0310909 59.1074C-0.0472211 58.4976 0.0229337 57.8779 0.235586 57.3011C0.450933 56.7154 5.51417 43.3075 6.47774 40.8232L13.6151 43.7149C13.0729 45.1116 11.1094 50.4062 9.5318 54.6715L12.1527 54.3866L12.9776 61.9752L4.2282 62.4155C4.09112 62.4304 3.95333 62.4379 3.81544 62.438Z" fill="#367CFF"/>
<path d="M25.611 36.8656C25.5877 36.8626 24.9463 39.2758 19.9419 38.9001C16.4775 38.6406 15.6322 36.2824 15.5532 36.2824C15.9268 36.2031 16.5335 36.1206 16.6993 36.0322C17.2449 35.739 17.6423 35.3823 17.8422 34.6164C17.9986 34.0176 18.0786 31.7122 18.0786 30.5555L23.4097 31.7535C23.3353 33.0582 22.8152 36.0831 24.6381 36.6185C24.9413 36.7069 25.268 36.7882 25.611 36.8656Z" fill="#E98862"/>
<path d="M23.2248 34.3184C21.1232 34.4843 18.4234 33.5969 17.9105 30.7929L17.4479 28.2627C16.935 25.4587 17.992 22.9163 20.6322 22.4334C23.2723 21.9506 25.6614 23.8629 26.1741 26.6668L26.379 27.7869C26.5757 28.863 26.9746 34.0226 23.2248 34.3184Z" fill="#E98862"/>
<path d="M25.1729 31.744C24.7957 29.8485 24.6227 28.5838 24.6428 27.2498C25.1742 26.3183 25.0344 25.2478 24.9136 24.7857C25.2796 25.0181 25.7098 25.1284 26.1425 25.1008C26.1425 25.1008 25.2637 21.574 22.2769 20.625C21.7276 20.4114 20.3253 20.1414 18.4634 20.3968C16.8797 20.6139 12.976 21.798 12.4182 26.1929V26.1954C12.3999 26.3413 12.025 30.3906 11.2782 32.3335C10.2738 34.9451 8.86337 35.7566 8.8991 38.7702C8.94512 42.6463 16.071 43.1624 20.3685 42.8724C24.666 42.5824 27.0658 41.1692 27.0973 38.3758C27.1315 35.2457 25.9278 35.5364 25.1729 31.744Z" fill="#0A0A0A"/>
<path d="M7.88943 47.5472L7.75049 47.552L8.26415 62.5616L8.40309 62.5568L7.88943 47.5472Z" fill="#0C0C0C"/>
<path d="M132.835 127.411H2.09487C2.06907 127.411 2.04431 127.401 2.02606 127.382C2.00781 127.364 1.99756 127.339 1.99756 127.313C1.99756 127.288 2.00781 127.263 2.02606 127.245C2.04431 127.226 2.06907 127.216 2.09487 127.216H132.835C132.861 127.216 132.886 127.226 132.904 127.245C132.922 127.263 132.932 127.288 132.932 127.313C132.932 127.339 132.922 127.364 132.904 127.382C132.886 127.401 132.861 127.411 132.835 127.411Z" fill="#292A2E"/>
<path d="M119.341 109.191C119.304 109.191 119.268 109.176 119.242 109.15C119.046 108.954 118.727 105.361 117.867 94.6607C117.515 90.2826 117.183 86.1474 116.94 83.6341C116.923 83.4546 116.853 83.4338 116.83 83.427C116.498 83.3267 115.489 84.1231 114.925 84.8203C114.913 84.8344 114.899 84.8462 114.883 84.855C114.867 84.8637 114.85 84.8692 114.831 84.8711C114.813 84.873 114.795 84.8713 114.777 84.8661C114.76 84.861 114.744 84.8524 114.729 84.8409C114.715 84.8294 114.703 84.8153 114.695 84.7992C114.686 84.7832 114.68 84.7656 114.679 84.7474C114.677 84.7292 114.678 84.7109 114.683 84.6934C114.689 84.6759 114.697 84.6596 114.709 84.6454C115.082 84.1844 116.296 82.9758 116.91 83.1606C117.034 83.1979 117.188 83.3055 117.217 83.6074C117.46 86.1228 117.792 90.2593 118.144 94.6385C118.667 101.141 119.259 108.507 119.453 108.971C119.468 108.992 119.477 109.016 119.479 109.042C119.481 109.067 119.476 109.093 119.464 109.115C119.453 109.138 119.435 109.157 119.413 109.171C119.391 109.184 119.366 109.191 119.341 109.191Z" fill="#494949"/>
<path d="M116.582 88.2458C118.889 86.3966 119.654 83.5184 118.29 81.8171C116.926 80.1158 113.951 80.2356 111.644 82.0848C109.337 83.934 108.572 86.8123 109.936 88.5136C111.3 90.2149 114.275 90.095 116.582 88.2458Z" fill="#0CBC8B"/>
<path opacity="0.2" d="M116.582 88.2458C118.889 86.3966 119.654 83.5184 118.29 81.8171C116.926 80.1158 113.951 80.2356 111.644 82.0848C109.337 83.934 108.572 86.8123 109.936 88.5136C111.3 90.2149 114.275 90.095 116.582 88.2458Z" fill="white"/>
<path d="M110.584 88.9462C110.57 88.9462 110.557 88.9424 110.546 88.9354C110.535 88.9283 110.526 88.9182 110.521 88.9062C110.515 88.8943 110.513 88.881 110.515 88.8679C110.516 88.8549 110.522 88.8425 110.53 88.8324L117.105 80.904C117.11 80.8968 117.118 80.8908 117.126 80.8864C117.134 80.882 117.143 80.8792 117.152 80.8783C117.161 80.8774 117.17 80.8783 117.179 80.881C117.188 80.8837 117.196 80.8881 117.203 80.894C117.21 80.8999 117.216 80.9072 117.221 80.9154C117.225 80.9235 117.227 80.9325 117.228 80.9417C117.229 80.9509 117.228 80.9602 117.225 80.9689C117.222 80.9777 117.218 80.9858 117.212 80.9928L110.637 88.9212C110.631 88.9291 110.622 88.9354 110.613 88.9397C110.604 88.944 110.594 88.9463 110.584 88.9462Z" fill="white"/>
<path d="M120.774 107.491C120.752 107.491 120.73 107.486 120.71 107.476C120.69 107.466 120.673 107.451 120.66 107.433C120.648 107.415 120.639 107.394 120.636 107.372C120.633 107.35 120.635 107.328 120.643 107.307L123.112 100.204C123.185 99.9956 123.309 99.8085 123.472 99.6601C123.636 99.5117 123.834 99.4068 124.049 99.3549C124.264 99.3031 124.489 99.306 124.702 99.3633C124.915 99.4207 125.111 99.5307 125.271 99.6832L126.576 100.931C126.603 100.956 126.619 100.991 126.619 101.028C126.62 101.065 126.606 101.101 126.581 101.128C126.555 101.154 126.52 101.17 126.484 101.17C126.447 101.171 126.411 101.157 126.384 101.132L125.079 99.8848C124.953 99.7644 124.798 99.6776 124.63 99.6324C124.461 99.5871 124.284 99.5849 124.115 99.6258C123.945 99.6667 123.788 99.7495 123.659 99.8666C123.53 99.9837 123.432 100.131 123.375 100.296L120.905 107.398C120.896 107.425 120.878 107.449 120.854 107.466C120.831 107.482 120.803 107.491 120.774 107.491Z" fill="#494949"/>
<path d="M130.225 104.863C131.934 103.51 131.833 100.533 129.998 98.2151C128.163 95.8969 125.289 95.1146 123.579 96.4678C121.87 97.8211 121.971 100.797 123.806 103.116C125.641 105.434 128.515 106.216 130.225 104.863Z" fill="#0CBC8B"/>
<path d="M118.219 108.738C118.188 108.738 118.157 108.728 118.133 108.708C118.108 108.689 118.091 108.662 118.084 108.631L113.939 91.303C113.911 91.1848 113.851 91.0768 113.765 90.9907C113.679 90.9046 113.571 90.8439 113.453 90.8151C113.335 90.7864 113.212 90.7908 113.096 90.8278C112.98 90.8648 112.877 90.933 112.798 91.0249L111.52 92.5012C111.496 92.5291 111.462 92.5463 111.425 92.5489C111.388 92.5516 111.352 92.5395 111.324 92.5154C111.296 92.4912 111.279 92.457 111.276 92.4202C111.274 92.3834 111.286 92.3471 111.31 92.3192L112.587 90.8429C112.7 90.7124 112.847 90.6155 113.012 90.563C113.176 90.5104 113.352 90.5043 113.52 90.5452C113.687 90.5862 113.84 90.6726 113.962 90.795C114.084 90.9173 114.17 91.0709 114.21 91.2389L118.354 108.567C118.359 108.588 118.359 108.609 118.355 108.63C118.35 108.65 118.341 108.669 118.328 108.686C118.315 108.702 118.298 108.716 118.28 108.725C118.261 108.734 118.24 108.739 118.219 108.739V108.738Z" fill="#494949"/>
<path d="M116.608 96.3533C117.11 93.4411 115.777 90.7798 113.629 90.4091C111.481 90.0384 109.333 92.0988 108.83 95.011C108.327 97.9232 109.661 100.585 111.809 100.955C113.956 101.326 116.105 99.2656 116.608 96.3533Z" fill="#0CBC8B"/>
<path d="M119.34 109.191C119.334 109.191 119.328 109.191 119.323 109.19C119.305 109.188 119.287 109.182 119.271 109.173C119.255 109.164 119.241 109.152 119.23 109.137C119.219 109.123 119.211 109.107 119.206 109.089C119.201 109.071 119.199 109.053 119.202 109.035L121.848 87.5479C121.877 87.3138 121.973 87.093 122.124 86.9121C122.275 86.7312 122.476 86.5978 122.701 86.528C122.926 86.4582 123.167 86.455 123.394 86.5187C123.621 86.5824 123.825 86.7103 123.981 86.8871L127.006 90.3131C127.03 90.3407 127.043 90.3769 127.04 90.4138C127.038 90.4506 127.021 90.485 126.994 90.5094C126.966 90.5338 126.93 90.5463 126.893 90.544C126.856 90.5417 126.822 90.5249 126.797 90.4973L123.772 87.0713C123.652 86.9347 123.494 86.8358 123.319 86.7865C123.143 86.7373 122.957 86.7398 122.783 86.7937C122.609 86.8476 122.454 86.9507 122.337 87.0905C122.22 87.2303 122.146 87.4009 122.124 87.5818L119.478 109.069C119.474 109.103 119.457 109.134 119.432 109.156C119.407 109.179 119.374 109.191 119.34 109.191Z" fill="#494949"/>
<path d="M130.109 92.2171C131.164 90.3091 129.923 87.6023 127.335 86.1712C124.748 84.7401 121.795 85.1267 120.74 87.0347C119.685 88.9427 120.926 91.6495 123.514 93.0806C126.101 94.5117 129.054 94.1251 130.109 92.2171Z" fill="#0CBC8B"/>
<path opacity="0.2" d="M130.225 104.863C131.934 103.51 131.833 100.533 129.998 98.2151C128.163 95.8969 125.289 95.1146 123.579 96.4678C121.87 97.8211 121.971 100.797 123.806 103.116C125.641 105.434 128.515 106.216 130.225 104.863Z" fill="white"/>
<path opacity="0.5" d="M116.608 96.3533C117.11 93.4411 115.777 90.7798 113.629 90.4091C111.481 90.0384 109.333 92.0988 108.83 95.011C108.327 97.9232 109.661 100.585 111.809 100.955C113.956 101.326 116.105 99.2656 116.608 96.3533Z" fill="white"/>
<path opacity="0.5" d="M130.109 92.2171C131.164 90.3091 129.923 87.6023 127.335 86.1712C124.748 84.7401 121.795 85.1267 120.74 87.0347C119.685 88.9427 120.926 91.6495 123.514 93.0806C126.101 94.5117 129.054 94.1251 130.109 92.2171Z" fill="white"/>
<path d="M122.725 127.423H115.955L114.833 105.762H123.847L122.725 127.423Z" fill="#292A2E"/>
<path opacity="0.3" d="M122.725 127.423H115.955L114.833 105.762H123.847L122.725 127.423Z" fill="white"/>
<path d="M130.225 104.932C130.214 104.932 130.204 104.929 130.194 104.925C130.185 104.92 130.177 104.913 130.17 104.905L123.525 96.5101C123.513 96.4956 123.508 96.4772 123.51 96.4588C123.512 96.4405 123.522 96.4238 123.536 96.4123C123.551 96.4009 123.569 96.3956 123.587 96.3978C123.606 96.3999 123.622 96.4092 123.634 96.4237L130.279 104.819C130.287 104.829 130.292 104.841 130.294 104.854C130.295 104.867 130.293 104.88 130.287 104.892C130.282 104.904 130.273 104.914 130.262 104.921C130.251 104.928 130.238 104.932 130.225 104.932H130.225Z" fill="white"/>
<path d="M129.666 92.8898C129.651 92.8896 129.637 92.8847 129.625 92.8759L121.122 86.6672C121.114 86.6618 121.108 86.655 121.103 86.6472C121.099 86.6394 121.095 86.6308 121.094 86.6218C121.093 86.6127 121.093 86.6035 121.095 86.5947C121.097 86.5858 121.101 86.5774 121.107 86.57C121.112 86.5627 121.119 86.5564 121.127 86.5517C121.134 86.5469 121.143 86.5437 121.152 86.5423C121.161 86.5409 121.17 86.5413 121.179 86.5435C121.188 86.5456 121.196 86.5495 121.204 86.5549L129.708 92.7641C129.72 92.7728 129.728 92.785 129.733 92.799C129.737 92.8129 129.737 92.8278 129.732 92.8417C129.728 92.8555 129.719 92.8676 129.707 92.8761C129.695 92.8846 129.681 92.8892 129.666 92.8892V92.8898Z" fill="white"/>
<path d="M111.541 100.862C111.535 100.862 111.529 100.862 111.523 100.86C111.505 100.855 111.49 100.844 111.481 100.828C111.472 100.812 111.469 100.793 111.474 100.775L114.181 90.6328C114.183 90.6239 114.187 90.6155 114.193 90.6081C114.198 90.6007 114.205 90.5945 114.213 90.5898C114.221 90.5851 114.23 90.582 114.239 90.5808C114.248 90.5795 114.258 90.5801 114.266 90.5825C114.275 90.5849 114.284 90.589 114.291 90.5946C114.298 90.6003 114.304 90.6073 114.309 90.6153C114.314 90.6234 114.316 90.6322 114.318 90.6414C114.319 90.6505 114.318 90.6598 114.315 90.6687L111.608 100.811C111.604 100.826 111.596 100.839 111.584 100.848C111.571 100.857 111.557 100.862 111.541 100.862Z" fill="white"/>
</svg>
